<?xml version="1.0" encoding="utf-8"?>
<!-- Generator: Adobe Illustrator 16.0.0, SVG Export Plug-In . SVG Version: 6.00 Build 0)  -->
<!DOCTYPE svg PUBLIC "-//W3C//DTD SVG 1.1//EN" "http://www.w3.org/Graphics/SVG/1.1/DTD/svg11.dtd">
<svg version="1.1" id="Layer_1" xmlns="http://www.w3.org/2000/svg" xmlns:xlink="http://www.w3.org/1999/xlink" x="0px" y="0px"
	 width="800px" height="800px" viewBox="0 0 800 800" enable-background="new 0 0 800 800" xml:space="preserve">
<path d="M800,407.727C800,182.553,620.909,0,400,0C179.09,0,0,182.553,0,407.727C0,595.269,124.458,752.475,293.587,800
	l9.201-134.006c0.098-1.324,0.445-2.562,0.641-3.863c2.983-71.725,6.326-141.949,8.214-180.663
	c-26.28,36.936-42.286,98.979-46.344,182.182c-0.997,20.422-17.349,36.263-36.946,36.263c-0.64,0-1.258-0.021-1.899-0.065
	c-20.42-1.063-36.144-18.988-35.112-40.037c6-122.83,34.31-205.772,86.61-253.537c10.579-9.679,21.777-18.556,33.951-25.89
	c6.944-4.168,14.323-7.554,21.875-10.331c18.5-6.814,38.205-10.046,57.812-10.72L357.661,652.93l44.693,47.243l39.084-47.243
	l-27.072-293.186c17.958,1.258,35.916,4.665,52.973,10.764c18.359,6.531,34.203,16.971,49.459,29.166
	c58.44,46.638,89.366,134.549,91.882,261.264c0.424,21.093-15.81,38.521-36.251,38.954c-20.876,0.021-37.36-16.559-37.782-37.391
	c-1.64-82.574-16.755-143.968-43.577-180.969c3.983,50.196,10.917,142.6,13.064,205.013c0.402,2.128,0.911,4.297,1.041,6.555
	l6.619,105.382C678.17,749.131,800,593.272,800,407.727z M401.367,348.677c-57.932,0-104.883-48.394-104.883-108.182
	c0-59.766,46.951-108.182,104.883-108.182c57.942,0,104.949,48.416,104.949,108.182C506.316,300.283,459.31,348.677,401.367,348.677
	z" fill="#709bb2" />
</svg>
