<?xml version="1.0" encoding="iso-8859-1"?>
<!-- Generator: Adobe Illustrator 16.0.4, SVG Export Plug-In . SVG Version: 6.00 Build 0)  -->
<!DOCTYPE svg PUBLIC "-//W3C//DTD SVG 1.1//EN" "http://www.w3.org/Graphics/SVG/1.1/DTD/svg11.dtd">
<svg version="1.1" id="Capa_1" xmlns="http://www.w3.org/2000/svg" xmlns:xlink="http://www.w3.org/1999/xlink" x="0px" y="0px"
	 width="64px" height="64px" viewBox="0 0 64 64" style="enable-background:new 0 0 64 64;" xml:space="preserve">
<g>
	<g id="circle_31_">
		<g>
			<path d="M42.042,30.016l-7.448-0.031l-1.857-6.119c-0.091-0.328-0.384-0.568-0.736-0.568s-0.645,0.24-0.736,0.568L29,29.984
				h-6.938c-0.424,0-0.625,0.087-0.625,0.519c0,0.265,0.131,0.501,0.329,0.641c0.122,0.084,6.018,3.653,6.018,3.653
				s-2.668,7.387-2.704,7.479c-0.027,0.084-0.048,0.177-0.048,0.272c0,0.432,0.345,0.78,0.769,0.78c0.162,0,0.312-0.052,0.439-0.14
				L32,38.962c0,0,5.92,4.271,6.031,4.351c0.127,0.089,0.277,0.141,0.439,0.141c0.424,0,0.768-0.353,0.768-0.78
				c0-0.096-0.02-0.188-0.047-0.272c-0.036-0.092-2.976-7.604-2.976-7.604s5.999-3.569,6.122-3.653
				c0.198-0.14,0.329-0.376,0.329-0.645C42.667,30.071,42.466,30.016,42.042,30.016z M32,0C14.327,0,0,14.327,0,32s14.327,32,32,32
				s32-14.327,32-32S49.673,0,32,0z M47.446,30.216c-0.206,0.142-8.346,6.152-8.346,6.152s3.126,9.705,3.187,9.859
				c0.047,0.142,0.079,0.297,0.079,0.458c0,0.722-0.579,1.314-1.293,1.314c-0.273,0-0.527-0.088-0.739-0.235
				C40.146,47.63,32,41.631,32,41.631l-8.333,6.134C23.453,47.912,23.2,48,22.927,48c-0.714,0-1.293-0.586-1.293-1.314
				c0-0.161,0.033-0.316,0.079-0.458c0.061-0.154,3.188-9.859,3.188-9.859s-8.141-6.011-8.347-6.152
				C16.22,29.979,16,29.582,16,29.137C16,28.41,16.287,28,17,28h10l3.76-10.043C30.914,17.404,31.406,17,32,17
				c0.593,0,1.087,0.404,1.24,0.957L36,28h11c0.714,0,1,0.41,1,1.131C48,29.582,47.78,29.979,47.446,30.216z" fill="#709bb2"/>
		</g>
	</g>
</g>
</svg>
