<svg id="svg-source" height="35px" width="30px" version="1.1" 
  xmlns="http://www.w3.org/2000/svg"  
  xmlns:xlink="http://www.w3.org/1999/xlink">
  <g id="geotag" data-iconmelon="Dripicons:2ec9c396c9293a018250523526b7718b">
    <g>
      <path d="M16,0C10.592,0,4.276,3.196,4.276,12.204c0,8.731,10.213,18.924,10.647,19.354C15.223,31.853,15.611,32,16,32
		s0.777-0.147,1.076-0.442c0.435-0.43,10.647-10.623,10.647-19.354C27.724,3.196,21.408,0,16,0z M15.999,28.244
		c-2.534-2.772-8.66-10.088-8.66-16.04c0-8.482,6.629-9.142,8.661-9.142s8.661,0.66,8.661,9.142
		C24.661,18.146,18.533,25.47,15.999,28.244z" fill="#7cadca"></path>
      <path d="M16,5.615c-3.337,0-6.053,2.715-6.053,6.053c0,3.338,2.716,6.053,6.053,6.053c3.338,0,6.054-2.715,6.054-6.053
		C22.054,8.331,19.338,5.615,16,5.615z M16,15.425c-2.07,0-3.756-1.686-3.756-3.757S13.93,7.912,16,7.912
		c2.071,0,3.757,1.685,3.757,3.756S18.071,15.425,16,15.425z" fill="#7cadca"></path>
    </g>
  </g>
</svg>