<?xml version="1.0" encoding="utf-8"?>
<!-- Generator: Adobe Illustrator 16.0.0, SVG Export Plug-In . SVG Version: 6.00 Build 0)  -->
<!DOCTYPE svg PUBLIC "-//W3C//DTD SVG 1.1//EN" "http://www.w3.org/Graphics/SVG/1.1/DTD/svg11.dtd">
<svg version="1.1" id="Layer_1" xmlns="http://www.w3.org/2000/svg" xmlns:xlink="http://www.w3.org/1999/xlink" x="0px" y="0px"
	 width="96px" height="96px" viewBox="0 0 96 96" enable-background="new 0 0 96 96" xml:space="preserve">
<path d="M80.49,70.006c0-20.997-14.896-36.346-25.592-41.897c14.37-16.25,10.104-26.248,2.973-19.766
	c-7.294,6.631-12.267-2.321-25.86-5.636c-11.783-2.875,4.081,19.654,8.515,25.705C29.879,34.208,15.51,49.386,15.51,70.006
	c0,5.223,0.93,9.307,2.604,12.497c-1.954,3.169-2.547,6.032-1.244,7.335c1.253,1.254,3.949,0.75,6.974-1.027
	C29.79,92.728,38.409,93.545,48,93.545c9.72,0,18.437-0.843,24.391-4.897c3.132,1.909,5.953,2.481,7.244,1.19
	c1.365-1.363,0.651-4.438-1.528-7.783C79.639,78.932,80.49,74.991,80.49,70.006z M52.021,78.097c-4.478,0-8.59-1.829-11.152-5.211
	c-1.233-1.554-2.147-3.518-2.558-5.94h-3.921l0.95-3.243h2.515c0-0.23,0-0.506,0-0.781c0-0.457,0.043-0.913,0.043-1.37h-3.508
	l0.95-3.247h3.062c0.593-2.468,1.691-4.568,3.155-6.26c2.604-2.925,6.26-4.66,10.558-4.66c2.787,0,5.209,0.637,6.854,1.369
	l-2.229,5.212c-1.189-0.503-2.113-1.098-4.124-1.098c-2.192,0-4.203,0.732-5.621,2.469c-0.641,0.732-1.143,1.782-1.462,2.969h11.38
	l-0.95,3.247H44.848c-0.046,0.457-0.046,0.959-0.046,1.418c0,0.272,0,0.457,0,0.732h12.111l-0.95,3.243H45.442
	c0.319,1.371,0.82,2.422,1.507,3.199c1.464,1.644,3.611,2.331,5.897,2.331c2.1,0,3.299-0.687,4.259-1.188l2.047,5.075
	C57.598,77.23,54.946,78.097,52.021,78.097z"/>
</svg>
