<?xml version="1.0" encoding="utf-8"?>
<!-- Generator: Adobe Illustrator 16.0.4, SVG Export Plug-In . SVG Version: 6.00 Build 0)  -->
<!DOCTYPE svg PUBLIC "-//W3C//DTD SVG 1.1//EN" "http://www.w3.org/Graphics/SVG/1.1/DTD/svg11.dtd">
<svg version="1.1" id="Capa_1" xmlns="http://www.w3.org/2000/svg" xmlns:xlink="http://www.w3.org/1999/xlink" x="0px" y="0px"
	 width="16.461px" height="18.512px" viewBox="0 0 16.461 18.512" enable-background="new 0 0 16.461 18.512" xml:space="preserve">
<path d="M9.751,8.049c-0.003-0.16-0.003-0.254-0.003-0.254s0-0.603-0.484-1.082l0.744-0.828l1.029,1.09l5.1-5.588L14.971,0.34
	l0.1-0.111c0,0,0-0.153-0.068-0.198c-0.066-0.046-0.244-0.025-0.244-0.025s-4.568,5-5.857,6.42C8.73,6.311,8.562,6.233,8.42,6.181
	H7.783C7.561,6.265,7.274,6.41,7.012,6.644l-0.125-0.1L7.721,5.34c0,0-6.243-4.842-6.186-4.916C1.494,0.47,0.713,1.237,0.448,1.502
	L0.36,1.429L0,1.813l6.69,5.213C6.456,7.422,6.454,7.795,6.454,7.795s-0.002,0.27-0.016,0.688L5.629,7.653l-4.996,5.682l1.192,1.026
	l-0.058,0.067c0,0,0.004,0.156,0.071,0.199c0.068,0.043,0.245,0.016,0.245,0.016s2.498-2.834,4.288-4.871
	c-0.029,0.39-0.068,0.793-0.121,1.172c-0.222,1.609-0.74,5.265-0.956,6.8H3.259v0.768h9.956v-0.768h-2.307
	c-0.217-1.535-0.735-5.189-0.957-6.8c-0.021-0.161-0.043-0.331-0.061-0.502c1.773,1.273,5.25,3.783,5.209,3.841
	c0.041-0.048,0.797-0.845,1.053-1.113l0.076,0.055l0.232-0.271L9.751,8.049z M7.65,11.708h1.167v1.688H7.65V11.708z"/>
</svg>
